<svg width="800" height="800" viewBox="0 0 20 20" xmlns="http://www.w3.org/2000/svg">
  <path d="M5.8697.1227c-1.628.0735-3.0389.4715-4.1782 1.606C.5482 2.8692.155 4.2856.0815 5.8965.0357 6.902-.2319 14.4982.5442 16.4903c.5234 1.344 1.5543 2.3772 2.9105 2.9023.6328.2461 1.3552.4129 2.415.4615 8.8608.401 12.1454.1826 13.5305-3.3638.2458-.6313.415-1.3529.4617-2.41.405-8.8835-.0657-10.8091-1.61-12.3516C17.027.5068 15.5862-.3249 5.8697.1227m.0815 17.9448c-.9701-.0437-1.4965-.2055-1.8477-.3415-.8836-.3434-1.5473-1.0044-1.8886-1.8829-.591-1.5137-.395-8.7029-.3423-9.8662.0517-1.1395.2826-2.1807 1.0866-2.9846.995-.9926 2.2806-1.479 11.034-1.084 1.1422.0517 2.186.282 2.992 1.084.995.9925 1.4886 2.2878 1.0866 11.0076-.0438.9678-.206 1.4928-.3423 1.8432-.9005 2.3077-2.9722 2.6284-11.7783 2.2244m8.1385-13.378c0 .6572.5343 1.1912 1.194 1.1912s1.195-.534 1.195-1.1911-.5353-1.1911-1.195-1.1911c-.6597 0-1.194.534-1.194 1.191M4.8627 9.988c0 2.815 2.2876 5.0969 5.1095 5.0969 2.822 0 5.1095-2.282 5.1095-5.0969 0-2.815-2.2876-5.0958-5.1095-5.0958-2.822 0-5.1095 2.2809-5.1095 5.0958m1.793 0c0-1.8263 1.4846-3.3082 3.3165-3.3082s3.3165 1.4819 3.3165 3.3082c0 1.8273-1.4846 3.3093-3.3165 3.3093s-3.3165-1.482-3.3165-3.3093" fill="#000" fill-rule="evenodd"/>
</svg>